STARTFONT 2.1
COMMENT AUTOMATICALLY GENERATED FILE. DO NOT EDIT!
COMMENT Generated with 'ucs2any.pl luBS14.bdf ../../../fonts/util/map-ISO8859-1 ISO8859-1'
COMMENT from an ISO10646-1 encoded source BDF font.
COMMENT ucs2any.pl by Markus Kuhn <mkuhn@acm.org>, 2000.
COMMENT $Xorg: $
COMMENT ISO10646-1 extension by Markus Kuhn <mkuhn@acm.org>, 2001-03-20
COMMENT  (c) Copyright Bigelow & Holmes 1986, 1985. Lucida is a registered
COMMENT  trademark of Bigelow & Holmes. See LEGAL NOTICE file for terms 
COMMENT  of the license. 
FONT -B&H-Lucida-Bold-R-Normal-Sans-20-140-100-100-P-127-ISO8859-1
SIZE 14 100 100
FONTBOUNDINGBOX 35 22 -13 -4
STARTPROPERTIES 22
COMMENT Begin LogicalFontDescription
FONTNAME_REGISTRY ""
FOUNDRY "B&H"
FAMILY_NAME "Lucida"
WEIGHT_NAME "Bold"
SLANT "R"
SETWIDTH_NAME "Normal"
ADD_STYLE_NAME "Sans"
PIXEL_SIZE 20
POINT_SIZE 140
RESOLUTION_X 100
RESOLUTION_Y 100
SPACING "P"
AVERAGE_WIDTH 127
CHARSET_REGISTRY "ISO8859"
CHARSET_ENCODING "1"
COMMENT END LogicalFontDescription
FONT_ASCENT 18
FONT_DESCENT 5
DEFAULT_CHAR 0
COPYRIGHT "Copyright Bigelow & Holmes 1986, 1985."
FACE_NAME "Lucida Sans Bold"
X_HEIGHT 11
CAP_HEIGHT 14
ENDPROPERTIES
CHARS 192
STARTCHAR defaultchar
ENCODING 0
SWIDTH 813 0
DWIDTH 16 0
BBX 13 13 2 0
BITMAP
AAA8
0000
8008
0000
8008
0000
8008
0000
8008
0000
8008
0000
AAA8
ENDCHAR
STARTCHAR space
ENCODING 32
SWIDTH 343 0
DWIDTH 7 0
BBX 1 1 0 0
BITMAP
00
ENDCHAR
STARTCHAR exclam
ENCODING 33
SWIDTH 265 0
DWIDTH 7 0
BBX 3 14 2 0
BITMAP
E0
E0
E0
E0
E0
E0
60
60
60
60
00
00
E0
E0
ENDCHAR
STARTCHAR quotedbl
ENCODING 34
SWIDTH 530 0
DWIDTH 11 0
BBX 9 6 1 8
BITMAP
F380
F380
E380
6300
6300
6300
ENDCHAR
STARTCHAR numbersign
ENCODING 35
SWIDTH 687 0
DWIDTH 14 0
BBX 13 14 0 0
BITMAP
0670
0660
0C60
7FF8
7FF8
1CC0
18C0
19C0
FFF0
FFF0
3180
3380
3300
7300
ENDCHAR
STARTCHAR dollar
ENCODING 36
SWIDTH 687 0
DWIDTH 14 0
BBX 10 21 2 -3
BITMAP
0C00
0C00
0C00
0C00
3F80
7F80
7480
F400
FC00
7C00
3F00
1F80
0F80
0BC0
09C0
CBC0
FF80
FF00
0C00
0C00
0C00
ENDCHAR
STARTCHAR percent
ENCODING 37
SWIDTH 898 0
DWIDTH 18 0
BBX 17 14 0 0
BITMAP
380E00
7C0C00
CE1800
C63800
C67000
CEE000
7CC000
398000
039F00
073F80
0E3180
0C3180
183F80
381F00
ENDCHAR
STARTCHAR ampersand
ENCODING 38
SWIDTH 792 0
DWIDTH 16 0
BBX 15 14 0 0
BITMAP
07C0
1FE0
1C30
1C30
1EE0
0FC0
3F06
7F8E
E3CC
E1DC
E1F8
F0F0
7FF8
1FBC
ENDCHAR
STARTCHAR quotesingle
ENCODING 39
SWIDTH 265 0
DWIDTH 5 0
BBX 4 6 1 8
BITMAP
F0
F0
F0
60
60
60
ENDCHAR
STARTCHAR parenleft
ENCODING 40
SWIDTH 386 0
DWIDTH 8 0
BBX 5 18 1 -4
BITMAP
08
18
38
70
70
60
E0
E0
E0
E0
E0
E0
60
70
70
38
18
08
ENDCHAR
STARTCHAR parenright
ENCODING 41
SWIDTH 386 0
DWIDTH 8 0
BBX 5 18 2 -4
BITMAP
80
C0
E0
70
70
30
38
38
38
38
38
38
30
70
70
E0
C0
80
ENDCHAR
STARTCHAR asterisk
ENCODING 42
SWIDTH 464 0
DWIDTH 9 0
BBX 8 6 1 8
BITMAP
18
5A
E7
14
7E
24
ENDCHAR
STARTCHAR plus
ENCODING 43
SWIDTH 687 0
DWIDTH 14 0
BBX 12 12 1 0
BITMAP
0600
0600
0600
0600
0600
FFF0
FFF0
0600
0600
0600
0600
0600
ENDCHAR
STARTCHAR comma
ENCODING 44
SWIDTH 343 0
DWIDTH 7 0
BBX 4 7 1 -3
BITMAP
F0
F0
F0
F0
70
60
C0
ENDCHAR
STARTCHAR hyphen
ENCODING 45
SWIDTH 289 0
DWIDTH 6 0
BBX 4 2 1 6
BITMAP
F0
F0
ENDCHAR
STARTCHAR period
ENCODING 46
SWIDTH 343 0
DWIDTH 7 0
BBX 4 3 1 0
BITMAP
F0
F0
F0
ENDCHAR
STARTCHAR slash
ENCODING 47
SWIDTH 596 0
DWIDTH 12 0
BBX 12 17 0 -3
BITMAP
0070
0060
00C0
00C0
0180
0380
0300
0700
0600
0E00
0C00
1C00
1800
3000
3000
6000
E000
ENDCHAR
STARTCHAR zero
ENCODING 48
SWIDTH 687 0
DWIDTH 14 0
BBX 12 14 1 0
BITMAP
0F00
3FC0
70E0
6060
E070
E070
E070
E070
E070
E070
6060
70E0
3FC0
0F00
ENDCHAR
STARTCHAR one
ENCODING 49
SWIDTH 687 0
DWIDTH 14 0
BBX 5 14 4 0
BITMAP
F8
F8
38
38
38
38
38
38
38
38
38
38
38
38
ENDCHAR
STARTCHAR two
ENCODING 50
SWIDTH 687 0
DWIDTH 14 0
BBX 11 14 1 0
BITMAP
7F00
FFC0
C1E0
00E0
00E0
00E0
01C0
0380
0F00
1E00
7800
F800
FFE0
FFE0
ENDCHAR
STARTCHAR three
ENCODING 51
SWIDTH 687 0
DWIDTH 14 0
BBX 10 14 2 0
BITMAP
7F00
FF80
83C0
01C0
01C0
0380
7E00
7F00
0380
01C0
01C0
83C0
FF80
FF00
ENDCHAR
STARTCHAR four
ENCODING 52
SWIDTH 687 0
DWIDTH 14 0
BBX 11 14 1 0
BITMAP
03C0
03C0
07C0
0DC0
1DC0
39C0
71C0
E1C0
FFE0
FFE0
01C0
01C0
01C0
01C0
ENDCHAR
STARTCHAR five
ENCODING 53
SWIDTH 687 0
DWIDTH 14 0
BBX 10 14 2 0
BITMAP
FFC0
FFC0
C000
C000
C000
FC00
FF00
0780
01C0
01C0
01C0
83C0
FF80
FE00
ENDCHAR
STARTCHAR six
ENCODING 54
SWIDTH 687 0
DWIDTH 14 0
BBX 12 14 1 0
BITMAP
0FE0
3FE0
7820
7000
E000
EF80
FFE0
F0F0
E070
E070
6070
70E0
3FE0
0F80
ENDCHAR
STARTCHAR seven
ENCODING 55
SWIDTH 687 0
DWIDTH 14 0
BBX 10 14 3 0
BITMAP
FFC0
FFC0
01C0
0380
0300
0700
0E00
1C00
1C00
3800
3800
7800
7000
F000
ENDCHAR
STARTCHAR eight
ENCODING 56
SWIDTH 687 0
DWIDTH 14 0
BBX 12 14 1 0
BITMAP
1F80
3FC0
71E0
70E0
78E0
3FC0
1F80
3FE0
61F0
E0F0
E070
F0F0
7FE0
1F80
ENDCHAR
STARTCHAR nine
ENCODING 57
SWIDTH 687 0
DWIDTH 14 0
BBX 12 14 1 0
BITMAP
1F80
7FC0
70E0
E060
E070
E070
F0F0
7FF0
1F70
0070
00E0
41E0
7FC0
7F00
ENDCHAR
STARTCHAR colon
ENCODING 58
SWIDTH 343 0
DWIDTH 7 0
BBX 3 11 2 0
BITMAP
E0
E0
E0
00
00
00
00
00
E0
E0
E0
ENDCHAR
STARTCHAR semicolon
ENCODING 59
SWIDTH 343 0
DWIDTH 7 0
BBX 3 14 2 -3
BITMAP
E0
E0
E0
00
00
00
00
E0
E0
E0
E0
60
40
C0
ENDCHAR
STARTCHAR less
ENCODING 60
SWIDTH 687 0
DWIDTH 14 0
BBX 12 12 1 0
BITMAP
0010
0070
01F0
07C0
1F00
FC00
7C00
1F00
07C0
01F0
0070
0010
ENDCHAR
STARTCHAR equal
ENCODING 61
SWIDTH 687 0
DWIDTH 14 0
BBX 12 8 1 2
BITMAP
FFF0
FFF0
0000
0000
0000
0000
FFF0
FFF0
ENDCHAR
STARTCHAR greater
ENCODING 62
SWIDTH 687 0
DWIDTH 14 0
BBX 12 12 1 0
BITMAP
8000
E000
F800
3E00
0F80
03E0
03F0
0F80
3E00
F800
E000
8000
ENDCHAR
STARTCHAR question
ENCODING 63
SWIDTH 572 0
DWIDTH 11 0
BBX 10 14 1 0
BITMAP
FF00
FF80
83C0
01C0
01C0
0300
0600
0C00
3800
3800
0000
0000
3800
3800
ENDCHAR
STARTCHAR at
ENCODING 64
SWIDTH 833 0
DWIDTH 17 0
BBX 16 14 2 0
BITMAP
03F0
0E0C
1802
21F3
6671
4C71
8871
98E1
99A2
9F64
8E78
4000
3040
0FC0
ENDCHAR
STARTCHAR A
ENCODING 65
SWIDTH 773 0
DWIDTH 15 0
BBX 15 14 0 0
BITMAP
0780
07C0
07C0
0DE0
0CE0
0CE0
1870
1870
3FF8
3FF8
3038
603C
601C
E01E
ENDCHAR
STARTCHAR B
ENCODING 66
SWIDTH 669 0
DWIDTH 13 0
BBX 10 14 2 0
BITMAP
FF00
FF00
E380
E380
E380
E700
FC00
FF00
E3C0
E1C0
E1C0
E1C0
FF80
FF00
ENDCHAR
STARTCHAR C
ENCODING 67
SWIDTH 726 0
DWIDTH 15 0
BBX 13 14 1 0
BITMAP
07F8
1FF8
7C18
7000
F000
E000
E000
E000
E000
F000
7000
7C08
1FF8
0FF0
ENDCHAR
STARTCHAR D
ENCODING 68
SWIDTH 819 0
DWIDTH 16 0
BBX 14 14 2 0
BITMAP
FFC0
FFF0
E0F8
E038
E03C
E01C
E01C
E01C
E01C
E01C
E038
E078
FFF0
FFC0
ENDCHAR
STARTCHAR E
ENCODING 69
SWIDTH 645 0
DWIDTH 13 0
BBX 10 14 2 0
BITMAP
FFC0
FFC0
E000
E000
E000
E000
FF00
FF00
E000
E000
E000
E000
FFC0
FFC0
ENDCHAR
STARTCHAR F
ENCODING 70
SWIDTH 602 0
DWIDTH 12 0
BBX 9 14 2 0
BITMAP
FF80
FF80
E000
E000
E000
E000
FF00
FF00
E000
E000
E000
E000
E000
E000
ENDCHAR
STARTCHAR G
ENCODING 71
SWIDTH 759 0
DWIDTH 15 0
BBX 13 14 1 0
BITMAP
07F8
1FF8
3C18
7000
F000
E000
E000
E038
E038
F038
7038
7C38
1FF8
07F0
ENDCHAR
STARTCHAR H
ENCODING 72
SWIDTH 813 0
DWIDTH 16 0
BBX 13 14 2 0
BITMAP
E038
E038
E038
E038
E038
E038
FFF8
FFF8
E038
E038
E038
E038
E038
E038
ENDCHAR
STARTCHAR I
ENCODING 73
SWIDTH 361 0
DWIDTH 7 0
BBX 3 14 2 0
BITMAP
E0
E0
E0
E0
E0
E0
E0
E0
E0
E0
E0
E0
E0
E0
ENDCHAR
STARTCHAR J
ENCODING 74
SWIDTH 501 0
DWIDTH 10 0
BBX 7 17 1 -3
BITMAP
0E
0E
0E
0E
0E
0E
0E
0E
0E
0E
0E
0E
0E
0E
8E
FC
F8
ENDCHAR
STARTCHAR K
ENCODING 75
SWIDTH 753 0
DWIDTH 15 0
BBX 13 14 2 0
BITMAP
E0F0
E0C0
E180
E380
E700
EE00
FC00
EE00
EF00
E780
E3C0
E1C0
E1E0
E0F8
ENDCHAR
STARTCHAR L
ENCODING 76
SWIDTH 620 0
DWIDTH 12 0
BBX 10 14 2 0
BITMAP
E000
E000
E000
E000
E000
E000
E000
E000
E000
E000
E000
E000
FFC0
FFC0
ENDCHAR
STARTCHAR M
ENCODING 77
SWIDTH 940 0
DWIDTH 19 0
BBX 15 14 2 0
BITMAP
F81E
F83E
F83E
FC3E
DC7E
DC6E
DE6E
CEEE
CECE
CFCE
C78E
C78E
C38E
C00E
ENDCHAR
STARTCHAR N
ENCODING 78
SWIDTH 783 0
DWIDTH 16 0
BBX 12 14 2 0
BITMAP
E030
F030
F030
F830
FC30
DE30
CE30
C730
C7B0
C3F0
C1F0
C0F0
C0F0
C070
ENDCHAR
STARTCHAR O
ENCODING 79
SWIDTH 855 0
DWIDTH 17 0
BBX 16 14 1 0
BITMAP
07E0
1FF8
3C3C
700E
F00F
E007
E007
E007
E007
F00F
700E
3C3C
1FF8
07E0
ENDCHAR
STARTCHAR P
ENCODING 80
SWIDTH 657 0
DWIDTH 13 0
BBX 10 14 2 0
BITMAP
FF00
FFC0
E3C0
E1C0
E1C0
E1C0
E380
FF80
FE00
E000
E000
E000
E000
E000
ENDCHAR
STARTCHAR Q
ENCODING 81
SWIDTH 855 0
DWIDTH 17 0
BBX 18 18 1 -4
BITMAP
07E000
1FF800
3C3C00
700E00
F00F00
E00700
E00700
E00700
E00700
F00F00
700E00
7C3E00
1FFC00
07F800
007FC0
003F80
000F80
000300
ENDCHAR
STARTCHAR R
ENCODING 82
SWIDTH 734 0
DWIDTH 15 0
BBX 13 14 2 0
BITMAP
FF80
FFC0
E0E0
E0E0
E0E0
E1C0
FF80
FF00
E700
E380
E3C0
E1E0
E1E0
E0F8
ENDCHAR
STARTCHAR S
ENCODING 83
SWIDTH 594 0
DWIDTH 12 0
BBX 11 14 1 0
BITMAP
1FC0
7FC0
F040
F000
F800
7E00
3F00
1FC0
03E0
00E0
00E0
C1E0
FFC0
FF00
ENDCHAR
STARTCHAR T
ENCODING 84
SWIDTH 735 0
DWIDTH 15 0
BBX 13 14 1 0
BITMAP
FFF8
FFF8
0700
0700
0700
0700
0700
0700
0700
0700
0700
0700
0700
0700
ENDCHAR
STARTCHAR U
ENCODING 85
SWIDTH 783 0
DWIDTH 16 0
BBX 12 14 2 0
BITMAP
E070
E070
E070
E070
E070
E070
E070
E070
E070
E070
E070
70E0
7FE0
1F80
ENDCHAR
STARTCHAR V
ENCODING 86
SWIDTH 735 0
DWIDTH 15 0
BBX 14 14 0 0
BITMAP
F00C
7018
7818
3838
3830
3C30
1C60
1C60
0E60
0EC0
0EC0
07C0
0780
0780
ENDCHAR
STARTCHAR W
ENCODING 87
SWIDTH 940 0
DWIDTH 19 0
BBX 18 14 0 0
BITMAP
E0E0C0
70E180
70E180
71F180
71F180
39F300
39F300
3B3B00
3B3B00
1F3E00
1F3E00
1F3E00
1E1E00
0E1C00
ENDCHAR
STARTCHAR X
ENCODING 88
SWIDTH 699 0
DWIDTH 14 0
BBX 13 14 1 0
BITMAP
7038
3870
3CE0
1CC0
1FC0
0F80
0F00
0780
0F80
1FC0
19C0
30E0
70F0
E078
ENDCHAR
STARTCHAR Y
ENCODING 89
SWIDTH 738 0
DWIDTH 15 0
BBX 13 14 1 0
BITMAP
F038
7830
3860
3CE0
1CC0
0FC0
0F80
0700
0700
0700
0700
0700
0700
0700
ENDCHAR
STARTCHAR Z
ENCODING 90
SWIDTH 675 0
DWIDTH 13 0
BBX 11 14 1 0
BITMAP
FFE0
FFE0
01C0
03C0
0780
0700
0F00
1E00
1C00
3C00
7800
7000
FFE0
FFE0
ENDCHAR
STARTCHAR bracketleft
ENCODING 91
SWIDTH 386 0
DWIDTH 8 0
BBX 5 17 2 -3
BITMAP
F8
F8
E0
E0
E0
E0
E0
E0
E0
E0
E0
E0
E0
E0
E0
F8
F8
ENDCHAR
STARTCHAR backslash
ENCODING 92
SWIDTH 596 0
DWIDTH 12 0
BBX 12 17 0 -3
BITMAP
E000
6000
3000
3000
1800
1C00
0C00
0E00
0600
0700
0300
0380
0180
00C0
00C0
0060
0070
ENDCHAR
STARTCHAR bracketright
ENCODING 93
SWIDTH 386 0
DWIDTH 8 0
BBX 5 17 1 -3
BITMAP
F8
F8
38
38
38
38
38
38
38
38
38
38
38
38
38
F8
F8
ENDCHAR
STARTCHAR asciicircum
ENCODING 94
SWIDTH 687 0
DWIDTH 14 0
BBX 12 12 1 2
BITMAP
0200
0600
0600
0F00
0F00
1F80
1980
39C0
30C0
70E0
6060
E070
ENDCHAR
STARTCHAR underscore
ENCODING 95
SWIDTH 500 0
DWIDTH 10 0
BBX 9 2 1 -3
BITMAP
FF80
FF80
ENDCHAR
STARTCHAR grave
ENCODING 96
SWIDTH 675 0
DWIDTH 13 0
BBX 5 2 4 12
BITMAP
E0
38
ENDCHAR
STARTCHAR a
ENCODING 97
SWIDTH 623 0
DWIDTH 12 0
BBX 11 11 1 0
BITMAP
3F00
7F80
41C0
01C0
3FC0
7FC0
F1C0
E1C0
E3C0
FFE0
79E0
ENDCHAR
STARTCHAR b
ENCODING 98
SWIDTH 696 0
DWIDTH 14 0
BBX 12 14 1 0
BITMAP
E000
E000
E000
E780
EFE0
F0E0
E070
E070
E070
E070
E0F0
F0E0
FFE0
E780
ENDCHAR
STARTCHAR c
ENCODING 99
SWIDTH 545 0
DWIDTH 11 0
BBX 8 11 2 0
BITMAP
1F
7F
71
E0
E0
E0
E0
E0
70
7F
1F
ENDCHAR
STARTCHAR d
ENCODING 100
SWIDTH 696 0
DWIDTH 14 0
BBX 12 14 0 0
BITMAP
0070
0070
0070
1F70
7FF0
70F0
F070
E070
E070
E070
E070
70F0
7F70
3E70
ENDCHAR
STARTCHAR e
ENCODING 101
SWIDTH 614 0
DWIDTH 12 0
BBX 11 11 0 0
BITMAP
1F00
3FC0
79C0
F0E0
E0E0
FFE0
FFE0
F000
7820
3FE0
1FC0
ENDCHAR
STARTCHAR f
ENCODING 102
SWIDTH 461 0
DWIDTH 9 0
BBX 8 14 1 0
BITMAP
3F
7F
70
FE
FE
70
70
70
70
70
70
70
70
70
ENDCHAR
STARTCHAR g
ENCODING 103
SWIDTH 696 0
DWIDTH 14 0
BBX 12 15 0 -4
BITMAP
1EF0
7FF0
70F0
F070
E070
E070
E070
E070
70F0
7F70
1E70
00F0
41F0
7FE0
3F80
ENDCHAR
STARTCHAR h
ENCODING 104
SWIDTH 693 0
DWIDTH 14 0
BBX 11 14 1 0
BITMAP
E000
E000
E000
E780
EFC0
F0E0
E0E0
E0E0
E0E0
E0E0
E0E0
E0E0
E0E0
E0E0
ENDCHAR
STARTCHAR i
ENCODING 105
SWIDTH 361 0
DWIDTH 7 0
BBX 3 14 2 0
BITMAP
E0
E0
00
E0
E0
E0
E0
E0
E0
E0
E0
E0
E0
E0
ENDCHAR
STARTCHAR j
ENCODING 106
SWIDTH 361 0
DWIDTH 7 0
BBX 7 18 -1 -4
BITMAP
0E
0E
00
0E
0E
0E
0E
0E
0E
0E
0E
0E
0E
0E
0E
8E
FE
FC
ENDCHAR
STARTCHAR k
ENCODING 107
SWIDTH 681 0
DWIDTH 14 0
BBX 11 14 2 0
BITMAP
E000
E000
E000
E1C0
E380
E700
E600
EC00
FE00
EE00
E700
E780
E3C0
E3E0
ENDCHAR
STARTCHAR l
ENCODING 108
SWIDTH 361 0
DWIDTH 7 0
BBX 3 14 2 0
BITMAP
E0
E0
E0
E0
E0
E0
E0
E0
E0
E0
E0
E0
E0
E0
ENDCHAR
STARTCHAR m
ENCODING 109
SWIDTH 1006 0
DWIDTH 20 0
BBX 17 11 2 0
BITMAP
E78F00
EFDF80
F1E380
E1C380
E1C380
E1C380
E1C380
E1C380
E1C380
E1C380
E1C380
ENDCHAR
STARTCHAR n
ENCODING 110
SWIDTH 693 0
DWIDTH 14 0
BBX 11 11 1 0
BITMAP
E780
FFC0
F0E0
E0E0
E0E0
E0E0
E0E0
E0E0
E0E0
E0E0
E0E0
ENDCHAR
STARTCHAR o
ENCODING 111
SWIDTH 675 0
DWIDTH 13 0
BBX 12 11 1 0
BITMAP
1F80
3FC0
70E0
E070
E070
E070
E070
E070
70E0
3FC0
1F80
ENDCHAR
STARTCHAR p
ENCODING 112
SWIDTH 696 0
DWIDTH 14 0
BBX 12 15 1 -4
BITMAP
E7C0
EFE0
F0E0
E070
E070
E070
E070
E0F0
F0E0
FFE0
EF80
E000
E000
E000
E000
ENDCHAR
STARTCHAR q
ENCODING 113
SWIDTH 696 0
DWIDTH 14 0
BBX 12 15 0 -4
BITMAP
1EF0
7FF0
70F0
F070
E070
E070
E070
E070
70F0
7F70
1E70
0070
0070
0070
0070
ENDCHAR
STARTCHAR r
ENCODING 114
SWIDTH 500 0
DWIDTH 10 0
BBX 7 11 2 0
BITMAP
E6
FE
FE
F0
E0
E0
E0
E0
E0
E0
E0
ENDCHAR
STARTCHAR s
ENCODING 115
SWIDTH 622 0
DWIDTH 12 0
BBX 10 11 1 0
BITMAP
3F80
7F80
F080
F000
FE00
7F80
1FC0
07C0
83C0
FF80
FF00
ENDCHAR
STARTCHAR t
ENCODING 116
SWIDTH 436 0
DWIDTH 9 0
BBX 6 13 1 0
BITMAP
70
70
FC
FC
70
70
70
70
70
70
74
7C
3C
ENDCHAR
STARTCHAR u
ENCODING 117
SWIDTH 693 0
DWIDTH 14 0
BBX 11 11 1 0
BITMAP
E0E0
E0E0
E0E0
E0E0
E0E0
E0E0
E0E0
E0E0
E1E0
7FE0
3CE0
ENDCHAR
STARTCHAR v
ENCODING 118
SWIDTH 663 0
DWIDTH 13 0
BBX 12 11 1 0
BITMAP
F070
7060
7860
38E0
38C0
1CC0
1D80
1D80
0F80
0F00
0F00
ENDCHAR
STARTCHAR w
ENCODING 119
SWIDTH 885 0
DWIDTH 18 0
BBX 17 11 0 0
BITMAP
E1E180
71E300
71E300
73F300
737600
3B7600
3B7600
3E7E00
3E3C00
1E3C00
1C3C00
ENDCHAR
STARTCHAR x
ENCODING 120
SWIDTH 568 0
DWIDTH 11 0
BBX 11 11 0 0
BITMAP
F8C0
79C0
3D80
3F00
1F00
1F00
1F00
1F80
37C0
73C0
E3E0
ENDCHAR
STARTCHAR y
ENCODING 121
SWIDTH 645 0
DWIDTH 13 0
BBX 12 15 0 -4
BITMAP
F070
7060
78E0
38C0
38C0
3D80
1D80
1F00
0F00
0E00
0E00
0E00
1C00
3C00
7800
ENDCHAR
STARTCHAR z
ENCODING 122
SWIDTH 608 0
DWIDTH 12 0
BBX 10 11 1 0
BITMAP
FFC0
FFC0
0780
0700
0F00
1E00
3C00
7800
F000
FFC0
FFC0
ENDCHAR
STARTCHAR braceleft
ENCODING 123
SWIDTH 386 0
DWIDTH 8 0
BBX 6 17 1 -3
BITMAP
1C
3C
38
38
3C
1C
1C
18
E0
F8
1C
1C
1C
38
38
3C
1C
ENDCHAR
STARTCHAR bar
ENCODING 124
SWIDTH 265 0
DWIDTH 5 0
BBX 2 17 2 -3
BITMAP
C0
C0
C0
C0
C0
C0
C0
C0
C0
C0
C0
C0
C0
C0
C0
C0
C0
ENDCHAR
STARTCHAR braceright
ENCODING 125
SWIDTH 386 0
DWIDTH 8 0
BBX 6 17 1 -3
BITMAP
C0
E0
E0
E0
E0
E0
E0
60
1C
7C
E0
E0
E0
E0
E0
E0
C0
ENDCHAR
STARTCHAR asciitilde
ENCODING 126
SWIDTH 687 0
DWIDTH 14 0
BBX 12 5 1 3
BITMAP
7830
7C30
CF30
C3E0
C1E0
ENDCHAR
STARTCHAR space
ENCODING 160
SWIDTH 343 0
DWIDTH 7 0
BBX 1 1 0 0
BITMAP
00
ENDCHAR
STARTCHAR exclamdown
ENCODING 161
SWIDTH 265 0
DWIDTH 7 0
BBX 3 15 2 -4
BITMAP
E0
E0
00
00
60
60
60
60
E0
E0
E0
E0
E0
E0
E0
ENDCHAR
STARTCHAR cent
ENCODING 162
SWIDTH 687 0
DWIDTH 14 0
BBX 9 14 2 0
BITMAP
0C00
0C00
3F80
7F80
F000
E000
E000
E000
E000
F000
7F80
3F80
0C00
0C00
ENDCHAR
STARTCHAR sterling
ENCODING 163
SWIDTH 687 0
DWIDTH 14 0
BBX 9 14 3 0
BITMAP
0F80
1F80
3800
3800
3800
3800
FE00
FE00
3800
3800
3000
7000
FF80
FF80
ENDCHAR
STARTCHAR currency
ENCODING 164
SWIDTH 687 0
DWIDTH 14 0
BBX 14 14 0 0
BITMAP
4008
E01C
77B8
3FF0
1CE0
1860
1860
1860
1CE0
1FE0
3FF0
7038
E01C
4008
ENDCHAR
STARTCHAR yen
ENCODING 165
SWIDTH 687 0
DWIDTH 14 0
BBX 13 14 0 0
BITMAP
F038
7870
3C60
1EC0
1FC0
0F80
3FE0
3FE0
0E00
3FE0
3FE0
0E00
0E00
0E00
ENDCHAR
STARTCHAR brokenbar
ENCODING 166
SWIDTH 265 0
DWIDTH 5 0
BBX 2 17 2 -3
BITMAP
C0
C0
C0
C0
C0
C0
C0
00
00
00
C0
C0
C0
C0
C0
C0
C0
ENDCHAR
STARTCHAR section
ENCODING 167
SWIDTH 693 0
DWIDTH 14 0
BBX 10 18 2 -4
BITMAP
3F80
7F80
F080
F000
F800
7F00
7F80
C7C0
C1C0
E0C0
FC80
7F80
1F80
07C0
03C0
C3C0
FF80
FF00
ENDCHAR
STARTCHAR dieresis
ENCODING 168
SWIDTH 675 0
DWIDTH 13 0
BBX 7 2 3 12
BITMAP
EE
EE
ENDCHAR
STARTCHAR copyright
ENCODING 169
SWIDTH 825 0
DWIDTH 16 0
BBX 15 14 1 0
BITMAP
07C0
1830
2008
47E4
4C24
9802
9802
9802
9802
4C04
47E4
2008
1830
07C0
ENDCHAR
STARTCHAR ordfeminine
ENCODING 170
SWIDTH 536 0
DWIDTH 11 0
BBX 10 7 0 7
BITMAP
7F00
FF80
C380
7F80
E380
FFC0
7BC0
ENDCHAR
STARTCHAR guillemotleft
ENCODING 171
SWIDTH 614 0
DWIDTH 12 0
BBX 11 9 1 1
BITMAP
0840
1CE0
39C0
7380
E700
7380
39C0
1CE0
0840
ENDCHAR
STARTCHAR logicalnot
ENCODING 172
SWIDTH 687 0
DWIDTH 14 0
BBX 12 8 1 2
BITMAP
FFF0
FFF0
0030
0030
0030
0030
0030
0030
ENDCHAR
STARTCHAR hyphen
ENCODING 173
SWIDTH 289 0
DWIDTH 6 0
BBX 4 2 1 6
BITMAP
F0
F0
ENDCHAR
STARTCHAR registered
ENCODING 174
SWIDTH 687 0
DWIDTH 14 0
BBX 11 10 1 4
BITMAP
1F00
2080
4040
8020
9F20
9F20
9E20
5B40
2080
1F00
ENDCHAR
STARTCHAR macron
ENCODING 175
SWIDTH 675 0
DWIDTH 13 0
BBX 7 2 3 12
BITMAP
FE
FE
ENDCHAR
STARTCHAR degree
ENCODING 176
SWIDTH 241 0
DWIDTH 5 0
BBX 3 3 1 11
BITMAP
E0
A0
E0
ENDCHAR
STARTCHAR plusminus
ENCODING 177
SWIDTH 687 0
DWIDTH 14 0
BBX 12 12 1 0
BITMAP
0600
0600
0600
FFF0
FFF0
0600
0600
0600
0600
0000
FFF0
FFF0
ENDCHAR
STARTCHAR twosuperior
ENCODING 178
SWIDTH 536 0
DWIDTH 8 0
BBX 6 9 -12 5
BITMAP
F8
8C
0C
0C
18
30
60
E0
FC
ENDCHAR
STARTCHAR threesuperior
ENCODING 179
SWIDTH 536 0
DWIDTH 8 0
BBX 6 9 -13 5
BITMAP
F8
0C
0C
08
78
1C
0C
8C
F8
ENDCHAR
STARTCHAR acute
ENCODING 180
SWIDTH 675 0
DWIDTH 13 0
BBX 5 2 5 12
BITMAP
38
E0
ENDCHAR
STARTCHAR mu
ENCODING 181
SWIDTH 699 0
DWIDTH 14 0
BBX 11 14 1 -3
BITMAP
E0E0
E0E0
E0E0
E0E0
E0E0
E0E0
E0E0
E0E0
E1E0
FEE0
FCE0
E000
E000
E000
ENDCHAR
STARTCHAR paragraph
ENCODING 182
SWIDTH 693 0
DWIDTH 14 0
BBX 9 17 1 -3
BITMAP
7F80
FD80
FD80
FD80
FD80
7D80
3D80
0D80
0D80
0D80
0D80
0D80
0D80
0D80
0D80
0D80
0D80
ENDCHAR
STARTCHAR periodcentered
ENCODING 183
SWIDTH 343 0
DWIDTH 14 0
BBX 3 2 5 6
BITMAP
E0
E0
ENDCHAR
STARTCHAR cedilla
ENCODING 184
SWIDTH 675 0
DWIDTH 13 0
BBX 4 5 5 -4
BITMAP
60
C0
20
B0
F0
ENDCHAR
STARTCHAR onesuperior
ENCODING 185
SWIDTH 536 0
DWIDTH 8 0
BBX 3 9 -13 5
BITMAP
E0
60
60
60
60
60
60
60
60
ENDCHAR
STARTCHAR ordmasculine
ENCODING 186
SWIDTH 536 0
DWIDTH 11 0
BBX 10 7 0 7
BITMAP
3F00
7F80
F3C0
E1C0
F3C0
7F80
3F00
ENDCHAR
STARTCHAR guillemotright
ENCODING 187
SWIDTH 614 0
DWIDTH 12 0
BBX 11 9 1 1
BITMAP
4200
E700
7380
39C0
1CE0
39C0
7380
E700
4200
ENDCHAR
STARTCHAR onequarter
ENCODING 188
SWIDTH 1066 0
DWIDTH 18 0
BBX 16 14 6 0
BITMAP
701C
3038
3070
30E0
30C0
3186
338E
3716
3616
0C26
1C66
387F
7006
E006
ENDCHAR
STARTCHAR onehalf
ENCODING 189
SWIDTH 1066 0
DWIDTH 18 0
BBX 15 14 6 0
BITMAP
701C
3038
3070
30E0
30C0
31FC
33C6
3706
3606
0C0C
1C18
3830
7070
E07E
ENDCHAR
STARTCHAR threequarters
ENCODING 190
SWIDTH 1120 0
DWIDTH 18 0
BBX 16 14 6 0
BITMAP
F81C
0C38
0C70
08E0
78C0
1D86
0F8E
8F16
FE16
0C26
1C66
387F
7006
E006
ENDCHAR
STARTCHAR questiondown
ENCODING 191
SWIDTH 572 0
DWIDTH 11 0
BBX 10 15 1 -4
BITMAP
0700
0700
0000
0000
0000
0700
0600
0C00
3800
7000
E000
E000
F040
7FC0
3FC0
ENDCHAR
STARTCHAR Agrave
ENCODING 192
SWIDTH 773 0
DWIDTH 15 0
BBX 15 17 0 0
BITMAP
0700
01C0
0000
0780
07C0
07C0
0DE0
0CE0
0CE0
1870
1870
3FF8
3FF8
3038
603C
601C
E01E
ENDCHAR
STARTCHAR Aacute
ENCODING 193
SWIDTH 773 0
DWIDTH 15 0
BBX 15 17 0 0
BITMAP
00E0
0380
0000
0780
07C0
07C0
0DE0
0CE0
0CE0
1870
1870
3FF8
3FF8
3038
603C
601C
E01E
ENDCHAR
STARTCHAR Acircumflex
ENCODING 194
SWIDTH 773 0
DWIDTH 15 0
BBX 15 17 0 0
BITMAP
0380
0EE0
0000
0780
07C0
07C0
0DE0
0CE0
0CE0
1870
1870
3FF8
3FF8
3038
603C
601C
E01E
ENDCHAR
STARTCHAR Atilde
ENCODING 195
SWIDTH 773 0
DWIDTH 15 0
BBX 15 17 0 0
BITMAP
07E0
0FC0
0000
0780
07C0
07C0
0DE0
0CE0
0CE0
1870
1870
3FF8
3FF8
3038
603C
601C
E01E
ENDCHAR
STARTCHAR Adieresis
ENCODING 196
SWIDTH 773 0
DWIDTH 15 0
BBX 15 17 0 0
BITMAP
0EE0
0EE0
0000
0780
07C0
07C0
0DE0
0CE0
0CE0
1870
1870
3FF8
3FF8
3038
603C
601C
E01E
ENDCHAR
STARTCHAR Aring
ENCODING 197
SWIDTH 773 0
DWIDTH 15 0
BBX 15 17 0 0
BITMAP
0380
0380
0000
0780
07C0
07C0
0DE0
0CE0
0CE0
1870
1870
3FF8
3FF8
3038
603C
601C
E01E
ENDCHAR
STARTCHAR AE
ENCODING 198
SWIDTH 997 0
DWIDTH 20 0
BBX 19 14 0 0
BITMAP
00FFE0
00FFE0
01F000
03F000
037000
077000
067F80
0C7F80
0C7000
1FF000
3FF000
307000
607FE0
E07FE0
ENDCHAR
STARTCHAR Ccedilla
ENCODING 199
SWIDTH 726 0
DWIDTH 15 0
BBX 13 18 1 -4
BITMAP
07F8
1FF8
7C18
7000
F000
E000
E000
E000
E000
F000
7000
7C08
1FF8
0FF0
0200
0100
0580
0780
ENDCHAR
STARTCHAR Egrave
ENCODING 200
SWIDTH 645 0
DWIDTH 13 0
BBX 10 17 2 0
BITMAP
3800
0E00
0000
FFC0
FFC0
E000
E000
E000
E000
FF00
FF00
E000
E000
E000
E000
FFC0
FFC0
ENDCHAR
STARTCHAR Eacute
ENCODING 201
SWIDTH 645 0
DWIDTH 13 0
BBX 10 17 2 0
BITMAP
0700
1C00
0000
FFC0
FFC0
E000
E000
E000
E000
FF00
FF00
E000
E000
E000
E000
FFC0
FFC0
ENDCHAR
STARTCHAR Ecircumflex
ENCODING 202
SWIDTH 645 0
DWIDTH 13 0
BBX 10 17 2 0
BITMAP
1C00
7700
0000
FFC0
FFC0
E000
E000
E000
E000
FF00
FF00
E000
E000
E000
E000
FFC0
FFC0
ENDCHAR
STARTCHAR Edieresis
ENCODING 203
SWIDTH 645 0
DWIDTH 13 0
BBX 10 17 2 0
BITMAP
7700
7700
0000
FFC0
FFC0
E000
E000
E000
E000
FF00
FF00
E000
E000
E000
E000
FFC0
FFC0
ENDCHAR
STARTCHAR Igrave
ENCODING 204
SWIDTH 361 0
DWIDTH 7 0
BBX 5 17 3 0
BITMAP
E0
38
00
70
70
70
70
70
70
70
70
70
70
70
70
70
70
ENDCHAR
STARTCHAR Iacute
ENCODING 205
SWIDTH 361 0
DWIDTH 7 0
BBX 5 17 2 0
BITMAP
38
E0
00
E0
E0
E0
E0
E0
E0
E0
E0
E0
E0
E0
E0
E0
E0
ENDCHAR
STARTCHAR Icircumflex
ENCODING 206
SWIDTH 361 0
DWIDTH 7 0
BBX 7 17 4 0
BITMAP
38
EE
00
38
38
38
38
38
38
38
38
38
38
38
38
38
38
ENDCHAR
STARTCHAR Idieresis
ENCODING 207
SWIDTH 361 0
DWIDTH 7 0
BBX 7 17 4 0
BITMAP
EE
EE
00
38
38
38
38
38
38
38
38
38
38
38
38
38
38
ENDCHAR
STARTCHAR Eth
ENCODING 208
SWIDTH 819 0
DWIDTH 16 0
BBX 16 14 0 0
BITMAP
3FF0
3FFC
383E
380E
380F
3807
FF07
FF07
3807
3807
380E
381E
3FFC
3FF0
ENDCHAR
STARTCHAR Ntilde
ENCODING 209
SWIDTH 783 0
DWIDTH 16 0
BBX 12 17 2 0
BITMAP
0FC0
1F80
0000
E030
F030
F030
F830
FC30
DE30
CE30
C730
C7B0
C3F0
C1F0
C0F0
C0F0
C070
ENDCHAR
STARTCHAR Ograve
ENCODING 210
SWIDTH 855 0
DWIDTH 17 0
BBX 16 17 1 0
BITMAP
0700
01C0
0000
07E0
1FF8
3C3C
700E
F00F
E007
E007
E007
E007
F00F
700E
3C3C
1FF8
07E0
ENDCHAR
STARTCHAR Oacute
ENCODING 211
SWIDTH 855 0
DWIDTH 17 0
BBX 16 17 1 0
BITMAP
00E0
0380
0000
07E0
1FF8
3C3C
700E
F00F
E007
E007
E007
E007
F00F
700E
3C3C
1FF8
07E0
ENDCHAR
STARTCHAR Ocircumflex
ENCODING 212
SWIDTH 855 0
DWIDTH 17 0
BBX 16 17 1 0
BITMAP
01C0
0770
0000
07E0
1FF8
3C3C
700E
F00F
E007
E007
E007
E007
F00F
700E
3C3C
1FF8
07E0
ENDCHAR
STARTCHAR Otilde
ENCODING 213
SWIDTH 855 0
DWIDTH 17 0
BBX 16 17 1 0
BITMAP
03F0
07E0
0000
07E0
1FF8
3C3C
700E
F00F
E007
E007
E007
E007
F00F
700E
3C3C
1FF8
07E0
ENDCHAR
STARTCHAR Odieresis
ENCODING 214
SWIDTH 855 0
DWIDTH 17 0
BBX 16 17 1 0
BITMAP
0770
0770
0000
07E0
1FF8
3C3C
700E
F00F
E007
E007
E007
E007
F00F
700E
3C3C
1FF8
07E0
ENDCHAR
STARTCHAR multiply
ENCODING 215
SWIDTH 687 0
DWIDTH 14 0
BBX 12 12 1 0
BITMAP
4020
E070
70E0
39C0
1F80
0F00
0F00
1F80
39C0
70E0
E070
4020
ENDCHAR
STARTCHAR Oslash
ENCODING 216
SWIDTH 855 0
DWIDTH 17 0
BBX 16 14 1 0
BITMAP
07E7
1FFC
3C3C
703E
F07F
E0E7
E1C7
E387
E707
FE0F
7C0E
3C3C
3FF8
E7E0
ENDCHAR
STARTCHAR Ugrave
ENCODING 217
SWIDTH 783 0
DWIDTH 16 0
BBX 12 17 2 0
BITMAP
1C00
0700
0000
E070
E070
E070
E070
E070
E070
E070
E070
E070
E070
E070
70E0
7FE0
1F80
ENDCHAR
STARTCHAR Uacute
ENCODING 218
SWIDTH 783 0
DWIDTH 16 0
BBX 12 17 2 0
BITMAP
0380
0E00
0000
E070
E070
E070
E070
E070
E070
E070
E070
E070
E070
E070
70E0
7FE0
1F80
ENDCHAR
STARTCHAR Ucircumflex
ENCODING 219
SWIDTH 783 0
DWIDTH 16 0
BBX 12 17 2 0
BITMAP
0700
1DC0
0000
E070
E070
E070
E070
E070
E070
E070
E070
E070
E070
E070
70E0
7FE0
1F80
ENDCHAR
STARTCHAR Udieresis
ENCODING 220
SWIDTH 783 0
DWIDTH 16 0
BBX 12 17 2 0
BITMAP
1DC0
1DC0
0000
E070
E070
E070
E070
E070
E070
E070
E070
E070
E070
E070
70E0
7FE0
1F80
ENDCHAR
STARTCHAR Yacute
ENCODING 221
SWIDTH 738 0
DWIDTH 15 0
BBX 13 17 1 0
BITMAP
01C0
0700
0000
F038
7830
3860
3CE0
1CC0
0FC0
0F80
0700
0700
0700
0700
0700
0700
0700
ENDCHAR
STARTCHAR Thorn
ENCODING 222
SWIDTH 657 0
DWIDTH 13 0
BBX 10 14 2 0
BITMAP
E000
E000
E000
FF00
FFC0
E3C0
E1C0
E1C0
E3C0
FF80
FE00
E000
E000
E000
ENDCHAR
STARTCHAR germandbls
ENCODING 223
SWIDTH 724 0
DWIDTH 14 0
BBX 13 14 1 0
BITMAP
1F00
7FC0
E3C0
E380
E700
E600
EF00
EFC0
E7E0
E1F0
E078
E078
E7F0
E7E0
ENDCHAR
STARTCHAR agrave
ENCODING 224
SWIDTH 623 0
DWIDTH 12 0
BBX 11 14 1 0
BITMAP
1C00
0700
0000
3F00
7F80
41C0
01C0
3FC0
7FC0
F1C0
E1C0
E3C0
FFE0
79E0
ENDCHAR
STARTCHAR aacute
ENCODING 225
SWIDTH 623 0
DWIDTH 12 0
BBX 11 14 1 0
BITMAP
0380
0E00
0000
3F00
7F80
41C0
01C0
3FC0
7FC0
F1C0
E1C0
E3C0
FFE0
79E0
ENDCHAR
STARTCHAR acircumflex
ENCODING 226
SWIDTH 623 0
DWIDTH 12 0
BBX 11 14 1 0
BITMAP
0E00
3B80
0000
3F00
7F80
41C0
01C0
3FC0
7FC0
F1C0
E1C0
E3C0
FFE0
79E0
ENDCHAR
STARTCHAR atilde
ENCODING 227
SWIDTH 623 0
DWIDTH 12 0
BBX 11 14 1 0
BITMAP
1F80
3F00
0000
3F00
7F80
41C0
01C0
3FC0
7FC0
F1C0
E1C0
E3C0
FFE0
79E0
ENDCHAR
STARTCHAR adieresis
ENCODING 228
SWIDTH 623 0
DWIDTH 12 0
BBX 11 14 1 0
BITMAP
3B80
3B80
0000
3F00
7F80
41C0
01C0
3FC0
7FC0
F1C0
E1C0
E3C0
FFE0
79E0
ENDCHAR
STARTCHAR aring
ENCODING 229
SWIDTH 623 0
DWIDTH 12 0
BBX 11 14 1 0
BITMAP
0E00
0E00
0000
3F00
7F80
41C0
01C0
3FC0
7FC0
F1C0
E1C0
E3C0
FFE0
79E0
ENDCHAR
STARTCHAR ae
ENCODING 230
SWIDTH 913 0
DWIDTH 18 0
BBX 17 11 0 0
BITMAP
3F3E00
7FFF00
43E700
03C380
01C380
3FFF80
FFFF80
E1C000
E3E080
FEFF80
7C7F80
ENDCHAR
STARTCHAR ccedilla
ENCODING 231
SWIDTH 545 0
DWIDTH 11 0
BBX 8 15 2 -4
BITMAP
1F
7F
71
E0
E0
E0
E0
E0
70
7F
1F
30
08
2C
3C
ENDCHAR
STARTCHAR egrave
ENCODING 232
SWIDTH 614 0
DWIDTH 12 0
BBX 11 14 0 0
BITMAP
1C00
0700
0000
1F00
3FC0
79C0
F0E0
E0E0
FFE0
FFE0
F000
7820
3FE0
1FC0
ENDCHAR
STARTCHAR eacute
ENCODING 233
SWIDTH 614 0
DWIDTH 12 0
BBX 11 14 0 0
BITMAP
0380
0E00
0000
1F00
3FC0
79C0
F0E0
E0E0
FFE0
FFE0
F000
7820
3FE0
1FC0
ENDCHAR
STARTCHAR ecircumflex
ENCODING 234
SWIDTH 614 0
DWIDTH 12 0
BBX 11 14 0 0
BITMAP
0E00
3B80
0000
1F00
3FC0
79C0
F0E0
E0E0
FFE0
FFE0
F000
7820
3FE0
1FC0
ENDCHAR
STARTCHAR edieresis
ENCODING 235
SWIDTH 614 0
DWIDTH 12 0
BBX 11 14 0 0
BITMAP
3B80
3B80
0000
1F00
3FC0
79C0
F0E0
E0E0
FFE0
FFE0
F000
7820
3FE0
1FC0
ENDCHAR
STARTCHAR igrave
ENCODING 236
SWIDTH 361 0
DWIDTH 7 0
BBX 5 14 3 0
BITMAP
E0
38
00
70
70
70
70
70
70
70
70
70
70
70
ENDCHAR
STARTCHAR iacute
ENCODING 237
SWIDTH 361 0
DWIDTH 7 0
BBX 5 14 2 0
BITMAP
38
E0
00
E0
E0
E0
E0
E0
E0
E0
E0
E0
E0
E0
ENDCHAR
STARTCHAR icircumflex
ENCODING 238
SWIDTH 361 0
DWIDTH 7 0
BBX 7 14 4 0
BITMAP
38
EE
00
38
38
38
38
38
38
38
38
38
38
38
ENDCHAR
STARTCHAR idieresis
ENCODING 239
SWIDTH 361 0
DWIDTH 7 0
BBX 7 14 4 0
BITMAP
EE
EE
00
38
38
38
38
38
38
38
38
38
38
38
ENDCHAR
STARTCHAR eth
ENCODING 240
SWIDTH 675 0
DWIDTH 14 0
BBX 12 18 1 0
BITMAP
0100
0180
0300
0700
FF80
FFC0
73E0
61E0
5FE0
3FF0
70F0
E070
E070
E070
E070
70E0
7FC0
1F80
ENDCHAR
STARTCHAR ntilde
ENCODING 241
SWIDTH 693 0
DWIDTH 14 0
BBX 11 14 1 0
BITMAP
1F80
3F00
0000
E780
FFC0
F0E0
E0E0
E0E0
E0E0
E0E0
E0E0
E0E0
E0E0
E0E0
ENDCHAR
STARTCHAR ograve
ENCODING 242
SWIDTH 675 0
DWIDTH 13 0
BBX 12 14 1 0
BITMAP
1C00
0700
0000
1F80
3FC0
70E0
E070
E070
E070
E070
E070
70E0
3FC0
1F80
ENDCHAR
STARTCHAR oacute
ENCODING 243
SWIDTH 675 0
DWIDTH 13 0
BBX 12 14 1 0
BITMAP
0380
0E00
0000
1F80
3FC0
70E0
E070
E070
E070
E070
E070
70E0
3FC0
1F80
ENDCHAR
STARTCHAR ocircumflex
ENCODING 244
SWIDTH 675 0
DWIDTH 13 0
BBX 12 14 1 0
BITMAP
0700
1DC0
0000
1F80
3FC0
70E0
E070
E070
E070
E070
E070
70E0
3FC0
1F80
ENDCHAR
STARTCHAR otilde
ENCODING 245
SWIDTH 675 0
DWIDTH 13 0
BBX 12 14 1 0
BITMAP
0FC0
1F80
0000
1F80
3FC0
70E0
E070
E070
E070
E070
E070
70E0
3FC0
1F80
ENDCHAR
STARTCHAR odieresis
ENCODING 246
SWIDTH 675 0
DWIDTH 13 0
BBX 12 14 1 0
BITMAP
1DC0
1DC0
0000
1F80
3FC0
70E0
E070
E070
E070
E070
E070
70E0
3FC0
1F80
ENDCHAR
STARTCHAR divide
ENCODING 247
SWIDTH 687 0
DWIDTH 14 0
BBX 12 12 1 0
BITMAP
0C00
0C00
0000
0000
0000
FFF0
FFF0
0000
0000
0000
0C00
0C00
ENDCHAR
STARTCHAR oslash
ENCODING 248
SWIDTH 675 0
DWIDTH 13 0
BBX 12 11 1 0
BITMAP
1FF0
3FE0
71E0
E3F0
E370
E670
EC70
FC70
78E0
7FC0
FF80
ENDCHAR
STARTCHAR ugrave
ENCODING 249
SWIDTH 693 0
DWIDTH 14 0
BBX 11 14 1 0
BITMAP
1C00
0700
0000
E0E0
E0E0
E0E0
E0E0
E0E0
E0E0
E0E0
E0E0
E1E0
7FE0
3CE0
ENDCHAR
STARTCHAR uacute
ENCODING 250
SWIDTH 693 0
DWIDTH 14 0
BBX 11 14 1 0
BITMAP
0380
0E00
0000
E0E0
E0E0
E0E0
E0E0
E0E0
E0E0
E0E0
E0E0
E1E0
7FE0
3CE0
ENDCHAR
STARTCHAR ucircumflex
ENCODING 251
SWIDTH 693 0
DWIDTH 14 0
BBX 11 14 1 0
BITMAP
0E00
3B80
0000
E0E0
E0E0
E0E0
E0E0
E0E0
E0E0
E0E0
E0E0
E1E0
7FE0
3CE0
ENDCHAR
STARTCHAR udieresis
ENCODING 252
SWIDTH 693 0
DWIDTH 14 0
BBX 11 14 1 0
BITMAP
3B80
3B80
0000
E0E0
E0E0
E0E0
E0E0
E0E0
E0E0
E0E0
E0E0
E1E0
7FE0
3CE0
ENDCHAR
STARTCHAR yacute
ENCODING 253
SWIDTH 645 0
DWIDTH 13 0
BBX 12 18 0 -4
BITMAP
0380
0E00
0000
F070
7060
78E0
38C0
38C0
3D80
1D80
1F00
0F00
0E00
0E00
0E00
1C00
3C00
7800
ENDCHAR
STARTCHAR thorn
ENCODING 254
SWIDTH 696 0
DWIDTH 14 0
BBX 12 18 1 -4
BITMAP
E000
E000
E000
E7C0
EFE0
F0E0
E070
E070
E070
E070
E0F0
F0E0
FFE0
EF80
E000
E000
E000
E000
ENDCHAR
STARTCHAR ydieresis
ENCODING 255
SWIDTH 645 0
DWIDTH 13 0
BBX 12 18 0 -4
BITMAP
1DC0
1DC0
0000
F070
7060
78E0
38C0
38C0
3D80
1D80
1F00
0F00
0E00
0E00
0E00
1C00
3C00
7800
ENDCHAR
ENDFONT
